# xmcd
#
# Track frame offsets: 
#        150
#        2355
#        14692
#        30880
#        42674
#        46315
#        61680
#        69776
#        82692
#        96123
#        114428
#        120786
#        130052
#        148342
#        166483
#        170861
#        189094
#        200378
#        202957
#        220253
#        230798
#        247876
#        265255
#        278696
#        296299
#        304458
#        320310
#        332628
#
# Disc length: 4644 seconds
#
# Revision: 0
# Processed by: cddbd v1.5.2PL0 Copyright (c) Steve Scherf et al.
# Submitted via: ExactAudioCopy v0.95b3
#
DISCID=7c12221c
DTITLE=John Lennon  - Come On, Listen To Me [CD2]  FLAC
DYEAR=1900
DGENRE=
TTITLE0=Ain't She Sweet
TTITLE1=Whatever Gets You Thru The Night
TTITLE2=Whatever Gets You Thru The Night
TTITLE3=Whatever Gets You Thru The Night
TTITLE4=Whatever Gets You Thru The Night
TTITLE5=Whatever Gets You Thru The Night
TTITLE6=Whatever Gets You Thru The Night
TTITLE7=Whatever Gets You Thru The Night
TTITLE8=Whatever Gets You Thru The Night
TTITLE9=Whatever Gets You Thru The Night
TTITLE10=Whatever Gets You Thru The Night
TTITLE11=Whatever Gets You Thru The Night
TTITLE12=Whatever Gets You Thru The Night
TTITLE13=Whatever Gets You Thru The Night
TTITLE14=Whatever Gets You Thru The Night
TTITLE15=Whatever Gets You Thru The Night
TTITLE16=Whatever Gets You Thru The Night
TTITLE17=Whatever Gets You Thru The Night
TTITLE18=Whatever Gets You Thru The Night
TTITLE19=Whatever Gets You Thru The Night
TTITLE20=Whatever Gets You Thru The Night
TTITLE21=Whatever Gets You Thru The Night
TTITLE22=Move Over Ms L
TTITLE23=Bless You
TTITLE24=Whatever Gets You Thru The Night
TTITLE25=Beef Jerky
TTITLE26=Move Over Ms L
TTITLE27=Whatever Gets You Thru The Night
EXTD=
EXTT0=
EXTT1=
EXTT2=
EXTT3=
EXTT4=
EXTT5=
EXTT6=
EXTT7=
EXTT8=
EXTT9=
EXTT10=
EXTT11=
EXTT12=
EXTT13=
EXTT14=
EXTT15=
EXTT16=
EXTT17=
EXTT18=
EXTT19=
EXTT20=
EXTT21=
EXTT22=
EXTT23=
EXTT24=
EXTT25=
EXTT26=
EXTT27=
PLAYORDER=
